<svg width="400" height="400" viewBox="0 0 400 400" xmlns="http://www.w3.org/2000/svg"><g fill-rule="nonzero" fill="#ADFFD4"> <!-- Icons created by Knockout Prezo from the Noun Project --><path d="M9.042 57.518c-2.298-5.894-6.285-14.537-13.727-14.353-9.078.32-9.458 11.7-7.806 18.135 1.529 6.097 3.894 11.966 6.031 17.841.295.81 1.205.785 1.716.293l4.343-1.121c.657 2.437 1.812 4.77 2.715 7.042.172.473.541.644.996.632 2.005.035 4.004-.998 5.948-1.552.541-.197.843-.842.603-1.29-.903-2.271-1.603-4.617-2.414-6.845 2.011-.579 4.066-1.25 6.028-1.964.541-.197.732-.725.603-1.29-1.529-5.256-3.126-10.487-5.036-15.527zm-20.127-4.989c.795-4.342 3.712-8.539 8.607-6.879 5.147 1.722 7.955 7.965 9.828 13.325-.135.049-.246.166-.332.35-.837 1.911-1.054 5.737-3.447 6.531-2.756.85-2.754-2.516-4.531-3.399-4.501-2.263-4.111 5.549-6.983 6.288l-1.29-3.966c-1.265-3.899-2.629-8.067-1.852-12.25zm18.548 30.341c-1.218.443-2.479.978-3.635 1.17-.872-1.977-1.794-4.089-2.463-6.139l4.207-1.072c.214 2.063 1.111 4.108 1.892 6.041zm-12.298-5.161c-.909-2.499-1.794-4.93-2.635-7.453 2.036-.511 2.35-2.385 3.421-4.074 2.246-3.723 2.78-.782 3.979.617.516.577 1.143 1.037 1.968 1.196 3.505.789 5.801-2.799 6.559-5.98l.098.27c1.185 3.469 2.328 7.03 3.31 10.572-5.438 1.902-11.139 3.288-16.7 4.852zM409.042 57.518c-2.298-5.894-6.285-14.537-13.727-14.353-9.078.32-9.458 11.7-7.806 18.135 1.529 6.097 3.894 11.966 6.031 17.841.295.81 1.205.785 1.716.293l4.343-1.121c.657 2.437 1.812 4.77 2.715 7.042.172.473.541.644.996.632 2.005.035 4.004-.998 5.948-1.552.541-.197.843-.842.603-1.29-.903-2.271-1.603-4.617-2.414-6.845 2.011-.579 4.066-1.25 6.028-1.964.541-.197.732-.725.603-1.29-1.529-5.256-3.126-10.487-5.036-15.527zm-20.127-4.989c.795-4.342 3.712-8.539 8.607-6.879 5.147 1.722 7.955 7.965 9.828 13.325-.135.049-.246.166-.332.35-.837 1.911-1.054 5.737-3.447 6.531-2.756.85-2.754-2.516-4.531-3.399-4.501-2.263-4.111 5.549-6.983 6.288l-1.29-3.966c-1.265-3.899-2.629-8.067-1.852-12.25zm18.548 30.341c-1.218.443-2.479.978-3.635 1.17-.872-1.977-1.794-4.089-2.463-6.139l4.207-1.072c.214 2.063 1.111 4.108 1.892 6.041zm-12.298-5.161c-.909-2.499-1.794-4.93-2.635-7.453 2.036-.511 2.35-2.385 3.421-4.074 2.246-3.723 2.78-.782 3.979.617.516.577 1.143 1.037 1.968 1.196 3.505.789 5.801-2.799 6.559-5.98l.098.27c1.185 3.469 2.328 7.03 3.31 10.572-5.438 1.902-11.139 3.288-16.7 4.852zM84.478 183.986c-1.392-3.632-4.345-7.484-7.827-9.294-.258-.565-1.34-.473-1.515.322-.455 2.716-.143 5.475-.612 8.125-.876.738-1.751 1.475-2.547 2.265l-.08-.052c-2.508-2.086-6.005-3.961-9.339-3.459l-.263.056c-8.244.719-14.097 6.858-13.609 15.3.207 3.885 1.552 6.976 4.959 9.077 1.104.661 2.246 1.176 3.426 1.546-.497 2.518-.716 5.046-.936 7.574-.043.767 1.188 1.057 1.363.261.577-2.466.585-5.018.95-7.508 1.866.361 3.728.379 5.586.053 1.99-.354 3.763-1.076 5.335-2.1.883.915 1.648 1.924 2.413 2.933.671.891 1.239 1.942 2.249 2.485.639.415 1.449-.308 1.097-.991-.488-.999-1.291-1.862-1.962-2.753-.685-.957-1.437-1.9-2.254-2.829 3.319-2.842 5.167-7.095 4.726-11.757-.241-2.43-1.038-4.879-2.526-6.7l2.26-1.997c2.816.297 5.67.448 8.496.467.489.034.852-.526.608-1.025zm-19.664 22.102c-2.013.566-4.205.619-6.217.219-.254-.222-.625-.35-.874-.228l-1.18-.369c-3.887-1.448-5.811-4.347-6.126-8.415-.517-7.609 4.761-13.212 12.163-13.683l.146.038c3.004.533 5.749 1.465 7.698 3.187-1.163 1.005-2.246 2.063-3.394 3.134-1.897-1.802-4.983-1.421-7.157.006-2.725 1.751-3.772 4.593-2.046 7.534 1.525 2.639 5.352 3.48 8.001 2.02 2.767-1.553 3.895-5.308 2.277-8.066l-.042-.198 3.512-3.228c.779 1.075 1.417 2.456 1.782 4.17 1.266 6.278-2.423 12.232-8.543 13.878zm-1.176-10.708c1.031-.977 2.128-1.969 3.145-3.012.976 1.998.295 4.624-1.818 5.694-1.863.948-4.604.359-5.631-1.559-1.149-2.168-.089-3.979 1.93-5.166 1.652-.972 2.987-.842 4.331-.025l-2.896 2.89c-.664.762.247 1.808.939 1.179zm13.252-12.123l1.751-1.475c.941-.752-.129-1.902-.953-1.245-.471.376-.941.752-1.464 1.207.11-1.747.075-3.531.251-5.291 2.494 2.02 4.753 4.227 6.137 7.172-1.876-.083-3.832-.219-5.722-.368z"/><path d="M346.859 123.89c-1.197-.692-2.462-1.178-3.726-1.664 1.146-.762 2.201-1.706 3.075-2.784.381-.481.084-1.41-.548-1.54-2.098-.455-4.195-.682-6.268-.75-.293-.02-.563.12-.697.303-.523-1.154-1.159-2.192-2.132-3.114-2.942-2.923-7.907-4.461-11.821-2.782-5.128 2.192-2.168 9.206-4.608 13.029-5.325 3.717-11.529-2.989-11.574-8.149-.095-1.09-1.448-1.303-1.849-.298-1.785 4.111-2.687 8.962-2.33 13.391.643 7.926 6.755 14.224 14.646 15.048 7.552.714 15.09-1.982 18.076-9.56.936-2.42 1.892-5.362 2.397-8.3 2.21.34 4.753-.347 6.938-.621.946-.147 1.3-1.696.418-2.209zm-7.548-4.874c1.33.054 2.615.244 3.968.457-1.033.875-2.134 1.501-3.349 2.014-.068-.022-.09.046-.112.115-.162-.885-.323-1.769-.507-2.586zm-12.834 23.142c-4.929 1.349-10.927.686-14.772-2.682-2.964-2.627-4.869-5.516-5.36-9.534-.42-3.314-.008-6.887.992-10.194 2.052 5.433 8.246 9.867 13.616 6.24.158-.024.27-.139.382-.254.022-.068.022-.068.112-.115.09-.046.112-.115.134-.183 2.688-3.666.263-11.868 5.963-12.362 5.181-.511 9.953 3.461 10.112 8.733.17 7.999-2.647 18.054-11.178 20.351zm13.349-18.738c.068.022.113.112.249.156.542.176.993.398 1.467.552-.631.098-1.193.217-1.779.406.066-.433.019-.75.063-1.114zM329.965 117.005l-.45.092c-1.391.182-2.571 1.226-2.893 2.865-.352 1.947 1.079 3.363 2.694 3.571 1.678.228 3.798-.906 4.11-2.945.405-2.326-1.667-3.713-3.461-3.582zm-.481 4.283c-1.464-.238-1.159-2.041.169-2.244l.127.041c.467.072 1.648.535 1.542 1.294-.106.758-1.307 1.002-1.837.909zM346.287 227.874c-3.592.657-8.032 2.646-10.348 5.544-.317.411-.446.772-.462 1.079-.904 1.497-1.593 3.038-1.552 4.843.02 1.912.565 3.889 1.136 5.683 1.24 3.764 3.335 7.229 6.476 9.716 2.875 2.253 6.827 3.823 10.483 2.846 3.797-1.014 6.18-4.863 8.044-8.022 1.813-3.07 3.921-6.721 3.051-10.43-.805-3.473-3.531-6.749-6.384-8.832-3.064-2.204-6.727-3.092-10.443-2.428zm-3.855 24.967c-2.552-2.186-4.302-5.136-5.326-8.3-.48-1.464-.921-3.065-1.052-4.645-.097-1.362.262-2.54.866-3.656l.465.308c2.267 1.428 4.582 2.843 6.961 4.217l1.415.817c.069.159.155.288.336.392 2.117 1.618 2.951 4.277 3.437 6.774.468 2.249.924 4.729.859 7.066-2.87.243-5.881-1.219-7.96-2.973zm10.026 2.385c-.026-2.667-.598-5.57-1.222-8.107-.268-1.065-.601-2.089-1.062-3.028 2.684 1.471 5.433 2.899 8.169 4.281-1.392 2.481-3.209 5.628-5.885 6.854zm6.93-8.665c-2.813-1.387-5.605-2.88-8.349-4.385 3.459-.497 6.749-1.605 9.866-3.249.864 2.676-.24 5.284-1.517 7.634zm-4.586-15.076c2.087 1.323 4.028 3.315 5.274 5.539-3.839 2.059-7.893 3.24-12.294 3.351-1.596-.921-3.192-1.843-4.741-2.777l-2.917-1.763c-.675-.43-1.523-.84-2.241-1.334l.012-.23c.772-.781 2.408-1.737 3.018-2.097 1.412-.847 2.941-1.548 4.548-1.966 3.217-.913 6.441-.516 9.341 1.277zM307.215-10.859c-.135-.07-.27-.141-.473-.141-4.863.211-9.05 3.307-9.658 8.585-.675 5.77 2.769 10.344 8.442 10.415 4.795 0 8.78-3.448 9.388-8.374.675-4.785-2.702-10.415-7.699-10.485zm-1.283 16.748c-4.322.211-7.159-2.956-6.889-7.389.203-4.504 3.647-7.178 7.699-7.389.135 0 .338-.07.405-.141 7.969 1.83 7.227 14.496-1.216 14.919zM294.117 1.729c-2.292-.233-4.515-.155-6.807-.699-1.32-.311-1.875 1.942-.556 2.253 2.431.622 5.209 1.088 7.64.311.972-.311.695-1.787-.278-1.865zM298.079 10.485c-.872 1.358-1.81 2.787-2.816 4.074-.805 1.072-1.743 2.073-2.213 3.43-.268.715.603 1.215 1.073.929 1.274-.715 2.145-2.144 3.084-3.359.939-1.286 1.81-2.573 2.615-3.859.738-1.286-1.006-2.358-1.743-1.215zM307.914 12.02c.056-1.359-1.614-1.359-1.725 0-.167 2.583-.445 5.982.334 8.361.334.952 1.336.748 1.447-.204.111-1.291-.111-2.719-.167-4.078 0-1.359.056-2.719.111-4.078zM317.924 5.275c-1.103-.899-2.648.623-1.545 1.453 1.177.899 2.207 2.006 3.016 3.183l1.839 3.667c.515.761 1.692.415 1.765-.415 0-2.906-2.795-6.088-5.076-7.887zM307.215 389.141c-.135-.07-.27-.141-.473-.141-4.863.211-9.05 3.307-9.658 8.585-.675 5.77 2.769 10.344 8.442 10.415 4.795 0 8.78-3.448 9.388-8.374.675-4.785-2.702-10.415-7.699-10.485zm-1.283 16.748c-4.322.211-7.159-2.956-6.889-7.389.203-4.504 3.647-7.178 7.699-7.389.135 0 .338-.07.405-.141 7.969 1.83 7.227 14.496-1.216 14.919zM307.564 386.109c.243-1.947-.081-3.828.406-5.842.325-1.276-2.029-1.813-2.353-.537-.487 2.082-.974 4.566-.243 6.581.325 1.074 2.11.806 2.191-.201zM296.11 390.969c.671.223 1.208-.819.671-1.339-1.678-1.637-3.491-3.125-4.833-5.135-.738-1.191-2.551 0-1.745 1.116 1.544 2.307 3.424 4.465 5.907 5.358zM328.326 396.796c-2.628-.467-5.325-.39-8.021-.779-1.314-.234-1.867 2.025-.553 2.259 2.766.467 5.739 1.013 8.575.545.899-.156.899-1.87 0-2.025zM317.69 389.69c2.021-2.012 4.176-4.024 6.063-6.237.741-.872-.337-1.945-1.213-1.207-2.223 1.811-4.244 3.957-6.265 6.036-.876.939.539 2.347 1.415 1.408zM126.378-6.696c.574-.275 1.237-.098 1.29.643.223 10.598.68 21.273-.075 31.854-.031.633-.672 1.046-1.251.977-10.836-1.09-20.833-5.702-31.499-7.359-.579-.069-.862-.543-.843-1.079.207-4.331.178-8.74.343-13.125.069-1.705-.242-3.112.937-4.294 2.466-2.448 5.807-4.45 8.581-6.617l4.623-3.612c.544-.425 1.354-1.406 2.067-1.615 1.22-.345 3.161.571 4.295.901 3.884 1.048 7.702 2.235 11.532 3.326zm-24.009 18.931c-1.94 1.776-3.742 3.618-5.556 5.557 8.735 1.428 17.087 4.719 25.672 6.178-1.194-.631-2.363-1.455-3.502-2.129-3.195-1.847-6.378-3.791-9.615-5.693l-4.696-2.76c-.597-.316-1.525-.719-2.303-1.154zm1.33-1.213c2.2 1.582 5.04 2.752 7.415 4.11 4.25 2.413 8.76 4.71 12.919 7.455-1.903-5.463-3.438-11.127-5.19-16.62l-1.392-4.472c-.114-.258-.132-.505-.204-.709-2.344 1.484-4.592 2.979-6.821 4.721-2.284 1.785-4.526 3.623-6.726 5.516zm16.77-6.673c1.608 5.085 3.88 10.347 5.271 15.602.352-8.181.205-16.666.08-24.56-2.193 1.453-4.374 2.809-6.555 4.166.534 1.581.814 3.621 1.204 4.793zm-9.305-13.927c-1.449.611-2.833 1.866-4.302 3.014 3.486 1.099 7.425 2.105 10.602 3.705l.404.293c1.976-1.283 4.035-2.458 6.113-3.386-2.973-.891-5.905-1.728-8.933-2.577-1.134-.33-2.334-.522-3.51-.906-.193-.023-.277-.131-.374-.142zm-5.656 4.419l-1.209 1.031-2.895 2.348.783 7.728c.113 1.041.043 2.746.404 3.768 2.049-1.861 4.086-3.627 6.261-5.326 2.284-1.785 4.689-3.751 7.221-5.555-.181-.119-.32-.185-.555-.262-3.311-1.323-6.676-2.603-10.011-3.733zm-9.407 10.043c-.068.922-.039 1.855.001 2.692l-.07 8.655c1.651-1.811 3.398-3.61 5.229-5.302-.517-1.334-.374-3.617-.462-4.851-.243-2.329-.39-4.647-.591-6.922l-.435.34c-.937.819-2.411 1.623-3.221 2.603-.175.224-.574.275-.653.51-.133.278.22 1.739.201 2.275zM126.378 393.304c.574-.275 1.237-.098 1.29.643.223 10.598.68 21.273-.075 31.854-.031.633-.672 1.046-1.251.977-10.836-1.09-20.833-5.702-31.499-7.359-.579-.069-.862-.543-.843-1.079.207-4.331.178-8.74.343-13.125.069-1.705-.242-3.112.937-4.294 2.466-2.448 5.807-4.45 8.581-6.617l4.623-3.612c.544-.425 1.354-1.406 2.067-1.615 1.22-.345 3.161.571 4.295.901 3.884 1.048 7.702 2.235 11.532 3.326zm-24.009 18.931c-1.94 1.776-3.742 3.618-5.556 5.557 8.735 1.428 17.087 4.719 25.672 6.178-1.194-.631-2.363-1.455-3.502-2.129-3.195-1.847-6.378-3.791-9.615-5.693l-4.696-2.76c-.597-.316-1.525-.719-2.303-1.154zm1.33-1.213c2.2 1.582 5.04 2.752 7.415 4.11 4.25 2.413 8.76 4.71 12.919 7.455-1.903-5.463-3.438-11.127-5.19-16.62l-1.392-4.472c-.114-.258-.132-.505-.204-.709-2.344 1.484-4.592 2.979-6.821 4.721-2.284 1.785-4.526 3.623-6.726 5.516zm16.77-6.673c1.608 5.085 3.88 10.347 5.271 15.602.352-8.181.205-16.666.08-24.56-2.193 1.453-4.374 2.809-6.555 4.166.534 1.581.814 3.621 1.204 4.793zm-9.305-13.927c-1.449.611-2.833 1.866-4.302 3.014 3.486 1.099 7.425 2.105 10.602 3.705l.404.293c1.976-1.283 4.035-2.458 6.113-3.386-2.973-.891-5.905-1.728-8.933-2.577-1.134-.33-2.334-.522-3.51-.906-.193-.023-.277-.131-.374-.142zm-5.656 4.419l-1.209 1.031-2.895 2.348.783 7.728c.113 1.041.043 2.746.404 3.768 2.049-1.861 4.086-3.627 6.261-5.326 2.284-1.785 4.689-3.751 7.221-5.555-.181-.119-.32-.185-.555-.262-3.311-1.323-6.676-2.603-10.011-3.733zm-9.407 10.043c-.068.922-.039 1.855.001 2.692l-.07 8.655c1.651-1.811 3.398-3.61 5.229-5.302-.517-1.334-.374-3.617-.462-4.851-.243-2.329-.39-4.647-.591-6.922l-.435.34c-.937.819-2.411 1.623-3.221 2.603-.175.224-.574.275-.653.51-.133.278.22 1.739.201 2.275zM147.826 116.305c.773-6.252-5.076-12.442-10.38-14.654l-.239-.072c-6.407-2.742-14.813-1.095-18.384 5.212-2.981 5.3-3.461 13.084.668 18.03 4.492 5.304 13.857 7.69 19.95 3.934 3.987-2.398 7.864-7.717 8.385-12.451zm-6.066 8.396c-4.259 4.786-11.244 5.426-16.904 2.53-6.308-3.241-8.169-9.955-6.296-16.504 2.272-7.823 10.717-11.212 18.163-8.028l.107.112c4.596 2.606 8.96 6.797 9.382 12.362.275 3.34-2.367 7.167-4.452 9.529zM137.213 122.086c-.066-.085-.196-.154-.283-.2-2.52-1.738-5.503-3.023-8.166-4.387-1.733-.92-3.486-1.802-5.305-2.768-.52-.276-1.242.039-1.123.651.443 2.93.344 5.522 2.981 7.771 1.656 1.379 3.993 2.52 6.115 2.499 2.293-.03 4.11-1.36 5.801-2.557.149-.071.231-.226.229-.327.017-.241-.031-.465-.249-.681zm-6.131 2.133c-2.016-.073-4.467-1.524-5.699-3.177-1.078-1.421-1.149-2.856-1.307-4.337l3.746 1.94c2.469 1.311 4.965 2.887 7.517 4.042-1.227.845-2.626 1.599-4.257 1.531zM139.859 110.819c-1.997-1.431-4.897-.316-6.074 1.899-.512.963.805 1.663 1.317.699.767-1.445 2.808-2.214 3.982-1.034 1.138 1.037.703 2.596.013 3.897-.46.867.524 1.451 1.171.869 1.897-1.771 1.377-5.135-.408-6.33zM126.08 109.37c.69-1.3 1.714-2.484 3.238-2.169 1.612.362 2.077 2.461 1.379 3.88-.511.963.808 1.664 1.32.701 1.202-2.263.498-5.291-1.836-6.099-2.045-.716-5.057.709-5.453 3.153-.145.91.892 1.4 1.352.533z" id="Shape"/><path d="M141.296 266.421c.68 2.878 1.171 5.778 1.661 8.679.172.926.24 1.767.627 2.548 1.504 3.053 3.851 5.903 5.643 8.763 4.114 6.404 8.785 13.372 12.716 19.483.38.526.949.456 1.321.154 3.17-.152 5.382-2.16 7.239-4.816.182-.279.26-.644.076-.937-4.922-8.101-10.262-15.974-15.472-23.882-1.161-1.772-2.173-3.958-3.635-5.476-2.202-2.375-6.083-4.09-8.832-5.628-.759-.479-1.542.308-1.344 1.112zm9.22 18.8c-1.757-2.739-3.597-5.37-5.284-8.156.733-.342 1.389-.887 2.032-1.373 1.994 3.598 4.581 6.949 6.786 10.405 2.351 3.612 4.658 7.152 6.965 10.692-.688.414-1.376.828-2.109 1.17l-.21.142c-2.697-4.245-5.47-8.694-8.179-12.88zm17.616 16.255c-1.183 1.693-2.854 2.634-4.73 2.883l-2.955-4.906c1.115-.541 2.13-1.167 3.116-1.93.764-.55 1.68-1.263 2.272-2.109.56.962 1.189 1.873 1.762 2.773.888 1.355 1.636 1.709.535 3.29zm-13.182-21.223l8.132 12.561 1.461 2.211-2.01 1.789c-2.39-3.802-4.723-7.592-7.055-11.382-2.121-3.365-4.094-7.141-6.71-10.168.674-.617 1.246-1.318 1.702-2.045 1.647 2.187 3.044 4.701 4.479 7.033zm-6.706-9.873l1.379.864-.081.11c-.565 1.022-1.504 1.901-2.349 2.609-.627.501-1.284.869-1.954 1.297-.092-.654-.129-1.297-.235-1.89-.29-1.902-.58-3.803-.926-5.717 1.379.864 2.8 1.801 4.166 2.726z"/><path d="M219.194 93.409c1.132-.364 1.082-1.756 3.31-1.12.548.5 1.095 1 1.585 1.53.432.417.806.864 1.268 1.196.693.497 1.531.849 2.37 1.059 2.084.497 4.463-.007 6.324-1.097 4.477-2.565 4.415-6.854 3.396-11.153 1.366-.767 2.646-1.561 3.954-2.298.782.098 1.685-.717 1.284-1.646l-2.26-5.154c2.941-2.419 4.702-6.434 4.202-10.146-.967-8.221-9.457-13.388-17.463-12.142-8.846 1.32-15.845 8.995-15.664 17.829.127 8.153 7.343 13.261 15.237 11.222.802 1.717 1.749 3.289 2.783 4.887.172.337.634.669 1.069.518 1.655-.489 3.339-1.206 4.967-2.035.565 2.546 1.013 5.293-1.172 7.327-2.943 2.846-6.388 2.263-9.04-.211-2.392-2.252-5.951-3.344-7.797.36-.586 1.149.886 2.17 1.646 1.074zm11.699-8.653c-.947-1.572-1.923-3.2-2.638-4.89-.172-.337-.692-.639-1.127-.488-8.158 2.527-14.7-3.703-13.06-11.836 1.522-7.647 8.481-13.531 16.592-12.988 9.299.575 16.388 12.619 7.512 19.055-.436.293-.469.947-.268 1.341.743 1.746 1.545 3.463 2.347 5.18-3.023 1.682-6.135 3.622-9.358 4.626zM217.303 207.577c-3.875-1.396-7.846-2.591-11.704-3.865 2.521-3.358 4.903-6.822 6.936-10.55.552-.954-1.14-1.905-1.692-.952-2.365 4.025-5.001 7.9-8.064 11.397-.481.568-.16 1.525.495 1.746 4.407 1.634 8.849 3.514 13.423 4.562 1.344.249 1.855-1.888.607-2.338zM224.867 185.482c-.612 4.968-1.355 9.892-2.412 14.797-1.005 4.835-3.005 9.685-3.503 14.575-.089 1.139 1.325 1.441 1.816.496 2.095-4.175 2.76-9.651 3.677-14.223 1.031-5.089 1.74-10.259 2.326-15.411.142-1.209-1.77-1.504-1.903-.233zM243.187 197.367c-4.055-3.123-8.276-6.098-12.708-8.794-1.16-.713-2.482.974-1.313 1.749 3.96 2.448 7.763 5.106 11.347 7.983-3.105 2.314-6.323 4.706-9.131 7.353-.989.952.161 2.481 1.368 1.748 3.663-2.329 7.04-5.37 10.39-8.156.673-.533.675-1.409.047-1.884zM302.156 311.816c.251-1.788 1.505-5.155.815-6.919-.455-1.21-1.608-1.164-2.739-1.27-12.414-1.378-24.764-3.581-37.214-4.704-.511-.072-.868.243-1.02.586-.168.081-.24.227-.276.482-.882 6.284-1.217 12.749-1.172 19.111-.012 1.197-.313 3.342.711 4.215.98.815 3.03.686 4.219.749 2.897.146 5.779.395 8.662.643 5.4.498 10.816 1.258 16.152 2.216 2.54.461 8.026 2.95 9.528-.329.9-1.958.85-4.569 1.144-6.664.38-2.708.76-5.416 1.192-8.116zm-5.481-6.604c.511.072 2.598.052 3.714.261-3.3 1.985-6.513 4.087-9.901 5.956-1.749.953-3.541 1.847-5.429 2.676-2.274.983-3.768 1.607-5.699-.227-4.322-4.097-7.858-8.97-12.565-12.548 9.962 1.034 19.888 2.688 29.88 3.883zm-33.747-4.165c4.011 2.23 7.178 5.645 10.244 9.044.132.175.271.298.454.48-3.785 3.584-7.833 7.184-11.399 11.059-.066-.27-.06-.686-.083-1.262-.242-6.442.056-13.016.785-19.322zm29.178 24.467l-4.27-.756c-5.343-.906-10.773-1.565-16.18-2.011-2.525-.198-5.064-.294-7.64-.5 3.867-3.052 7.104-7.182 10.554-10.605 1.778 2.177 4.047 4.944 6.324 5.42 1.518.317 3.151-.547 4.535-1.135 1.552-.668 3.061-1.394 4.518-2.127 1.311 2.164 2.397 4.452 3.424 6.784.829 1.888 1.571 4.024 2.845 5.713-1.167.149-3.095-.591-4.11-.785zm5.502.147c-.823-2.304-2.171-4.577-3.168-6.749-.917-2.004-1.95-3.921-3.093-5.8 3.323-1.774 6.521-3.773 9.675-5.831-.202 1.066-.534 2.321-.592 2.73l-1.271 8.678c-.244 1.737-.082 5.407-1.552 6.972zM66.636 315.053c-11.673 3.583-23.158 7.845-34.706 11.86-.187.062-.25.124-.375.247-.749.494-.811 1.791.25 1.977 2.185.432 4.494.556 6.741.741 1.061.124 2.122.185 3.246.309.811.062 1.623.124 2.434.247.062.371.062.679 0 1.05.187 2.038-.499 4.509-.687 6.548-.187 2.224-.312 4.509-.312 6.733 0 .927 1.373 1.73 2.06.865 7.678-9.575 15.48-19.026 22.534-28.971.562-.803-.312-1.915-1.186-1.606zm-21.156 25.947c.063-1.595.19-3.128.379-4.723.19-1.779.569-3.619.695-5.397 0-.675.063-1.349-.316-1.901-.948-1.411-3.35-1.227-4.804-1.349-1.77-.184-3.603-.368-5.436-.552 9.291-3.128 18.582-6.256 28-9.077-5.941 7.912-12.262 15.456-18.519 23z"/></g></svg>
