<svg width="116" height="86" viewBox="0 0 116 86" xmlns="http://www.w3.org/2000/svg"><path d="M16.947 53.911c.138 1.195 0 2.39-.346 3.515-1.798 6.327-10.166 6.889-15.007 3.585-1.591-1.125-.83-3.374 1.037-3.445 2.144-.141 4.219.281 6.293.141h.415l.138-.07.622-.141.692-.281.207-.141.069-.07c.069-.141.138-.211.207-.281-.069.07-.069.141-.207.211.207-.141.415-.422.207-.211.069-.07.138-.141.138-.211l.069-.141.207-.562.069-.211c.069-.281.069-.492.069-.703.069-.562.069-1.054.069-1.476v-.984c0-.141-.069-.703 0 .07-.069-.351-.069-.562-.069-.914v-1.476c-.069-.211-.069-.422 0-.633v-.281l-.207-.914c-.138-.562-.346-1.195-.553-1.828-.138-.492-.069-.281-.277-.773-.069-.281-.207-.633-.346-.914-.207-.562-.484-1.125-.761-1.757-.484-1.195-1.037-2.25-1.591-3.445-.899-1.757-1.867-3.515-2.835-5.202-.415-.703-.899-1.336-1.314-1.968-.761-1.406-1.452-2.882-2.006-4.429-1.106-3.163-2.006-6.538-1.936-9.982.138-3.515 1.106-6.889 3.458-9.701 2.628-3.023 6.501-4.148 10.373-4.288 1.452 0 2.697 1.476 2.628 2.882-.069 1.617-1.383 2.531-2.905 2.601h-.415c-.069.07-.138.07-.277.07l-.83.141c-.553.141-1.106.281-1.66.492l-.207.07-.622.351c-.277.141-.484.211-.692.351-.692.492.346-.211-.069.07-.415.351-.83.633-1.176 1.054l-.069.07-.415.633c-.277.351-.484.773-.692 1.195l-.069.141c-.069.281-.138.422-.207.633-.277.773-.484 1.547-.622 2.32l-.069.281c0 .07 0 .211-.069.281l-.069 1.195c-.069.844-.069 1.687-.069 2.46-.069.422-.069.844 0 1.195v1.125c.069.141.069.281.069.422l.069.562.207 1.195c.138.773.346 1.476.553 2.179.415 1.547.622 2.39 1.383 3.796 1.936 3.585 3.942 7.03 5.532 10.755.622 1.547 1.037 2.531 1.521 4.007l.207.633.069.141.346.773.207.422c.138.211.069.141-.069-.07.069.141.207.281.346.422l.138.351v.07l.138.422c.207.492.346.914.553 1.336v.141l.138.281c0 .141 0 .281.069.422.138.703.207 1.406.207 2.039zm-3.819-44.911h-.128.128zm2.872 39.064v-.064.064zm-3.936 7.031c.064-.192 0-.064-.064.128l.064-.128zm-2.68 1.905h-.384.384zm27.488-15.261c.545-.985 2.316-.563 2.112.633-.341 2.462-1.294 4.784-2.248 7.035-.954 2.462-2.043 4.925-3.338 7.246-1.022 1.759-2.316 3.799-4.087 4.784-.409.211-.886.422-1.294.492l-.886.07-.749-.141c-.954-.141-1.839-.844-2.384-1.618-3.133-4.432-2.997-9.849-2.997-15.125.068-6.402.409-12.804 1.022-19.135.545-5.909 1.226-11.96 2.793-17.658.477-1.759 1.022-3.869 2.316-5.206 1.294-1.407 3.883-1.688 4.7.352.749 1.055 1.226 2.251 1.567 3.518 1.022 3.095.749 6.472.204 9.638-.613 3.658-1.771 7.176-3.065 10.623-1.158 3.166-2.52 6.332-4.019 9.357-.136.211-.204.422-.341.704-.136 4.08-.204 8.161-.136 12.241l.136 2.884v.211c0-.704 0-.633.068.211v.633l.204 1.266.409 1.618.136.422.136.281c.136.352.272.633.409.844-.272-.492.068 0 .204.211h.204l.272-.141c.068 0 .204-.141.272-.211.136-.141.272-.211.341-.281l.613-.704c.272-.352.749-.915 1.09-1.548.954-1.407 1.703-2.955 2.452-4.502 1.362-2.955 2.248-6.191 3.883-9.005zm-5.808-36.739l-.064.064.064-.064zm-1.064 1h.128-.128zm0 0l.064.064-.064-.064zm-1.269 6.728c-.938 6.02-1.37 12.181-1.731 18.272 1.37-3.612 2.669-7.365 3.679-11.119.866-3.116 1.587-6.586 1.226-9.773-.144-1.487-.361-2.62-1.082-3.824-.072 0-.216-.212-.289-.283 0 0-.072.071-.072.142-.289.567.144-.425-.072.071-.072.142-.144.354-.144.496-.361.921-.649 1.912-.866 2.833-.144.567-.289 1.204-.361 1.771-.072.354-.144.637-.144.921-.144.496.072-.496-.072.071 0 .142 0 .283-.072.425zm-.667 45.272h-.064.064zm-.064 0h.064-.064zm11.815-37.504c-1.249-.665-1.665-2.141-1.804-3.544-.069-.665.208-1.329.486-1.994.139-.369.347-.591.624-.886.278-.295.555-.591.971-.738 1.041-.443 2.29-.517 3.261.222.763.665 1.457 1.477 1.596 2.584.139 1.034 0 1.994-.486 2.88-.555.96-1.318 1.551-2.22 1.846-.833.295-1.735.074-2.428-.369zm10.186 21.846c.272-.762 2.246-.069 1.974.831-1.089 4.018-2.79 9.214-4.968 13.232-.681 1.247-1.838 2.702-3.267 3.256-.749.277-1.497.485-2.382.208-.068 0-.204-.069-.34-.139-.136-.069-.204-.069-.272-.069h.068-.068l-.068-.069c-.408-.139-.749-.346-1.157-.554-1.497-1.039-2.586-2.91-2.995-4.711-.953-4.087-.408-8.452.068-12.609.204-2.217.476-4.503.817-6.789.272-2.148.272-4.434.817-6.512.544-2.078 3.403-1.732 3.947.139.204 1.039.272 2.148.204 3.256-.136 4.434-.885 8.868-1.225 13.371-.204 2.078-.272 4.157-.136 6.166 0 .139.068 1.039.068.485 0 .208 0 .416.068.623l.204 1.178.204 1.108c.068.208.136.346.136.554l.068.069.476 1.039.204.277.068.069h.068l.068-.069c.613-.277 1.021-.346 1.497-1.108 2.654-4.295 3.811-7.551 5.853-13.232zm16.684 18.872c1.166 1.69-1.166 3.451-2.676 2.535-5.283-3.029-4.871-10.987-4.116-16.199.274-2.254.686-4.508 1.166-6.691.412-2.042.755-3.522.892-5.564.069-1.902.137-3.31-.48-5.141-.137-.493-.274-.916-.549-1.338l-.137.141c-.823 1.338-1.235 2.958-1.715 4.508-.48 1.831-.892 3.662-1.303 5.564-1.029 4.578-2.538 9.086-2.47 13.734v.07c.206 1.268.549 2.535.412 3.874-.069.986-.755 1.902-1.715 2.113-1.029.211-1.921-.282-2.47-1.197-.755-1.197-.96-2.606-1.166-4.085-.206-1.409-.274-2.817-.343-4.226-.069-2.535.137-5.071.343-7.606.274-2.535.549-5.071.755-7.606l.206-4.015c0-1.127-.069-2.395.069-3.522 0-1.62 2.401-2.183 3.019-.704 1.029 2.465 1.098 5.423 1.098 8.029v3.029c.617-2.324 1.166-4.648 2.058-6.902.48-1.268 1.098-2.958 2.401-3.592 1.441-.775 2.607.282 3.43 1.479 2.264 3.381 2.676 7.325 2.47 11.269-.206 4.226-1.029 8.381-1.372 12.537-.137 2.113-.206 3.522.206 5.282l.206.775c0 .141.274.775.069.211.137.352.274.775.48 1.127.343.704.823 1.409 1.235 2.113zm20.594-3.897c1.656-.348 2.347 1.948 1.035 2.782-3.451 2.156-6.487-.765-7.937-3.826-1.242-2.713-2.001-5.773-2.899-8.625 0 .348-.069.626-.138.974-.207 1.461-.345 2.921-.483 4.382-.207 1.53-.414 3.2-.345 4.73l.069.765c.207 2.991-4.969 3.478-5.245.487l-.069-.696c-.69-10.364 0-20.797 1.587-31.091 1.104-7.234 2.278-14.676 5.107-21.562.552-1.252 1.104-2.574 1.794-3.756.552-.835 1.311-1.948 2.416-1.878 1.311 0 1.794 1.322 1.932 2.434.207 1.6.207 3.13 0 4.73-.552 3.965-1.518 8.138-3.106 11.755-.966 2.156-2.07 4.799-3.796 6.677-.276 3.2-.552 6.399-.759 9.599l.69-1.461c.966-2.087 2.208-4.243 3.865-5.843 1.518-1.391 3.796-1.461 5.107.348 1.932 2.713.966 6.538 0 9.39-.276.904-.552 1.808-.897 2.643l-.414.974v-.07c0 .139-.069.278-.069.278l-.414 1.043-1.104 2.504-.138.278-.207.487c-.069.209-.138.417-.276.556-.345.487-.828.904-1.38 1.113l.069.278.138 1.113c.345 1.53.759 3.269 1.311 4.66.276.765.621 1.53 1.104 2.226.207.348.552.835 1.104 1.252l.414.278c-.069-.07.483.139.414.139.621.07.966.07 1.518-.07zm-8.466-42.102c-.338 2.286-.609 4.571-.812 6.786l.406-1.071c1.15-2.857 2.03-5.786 2.707-8.857.541-2.429.947-4.929.88-7.429l-.068-.643c-1.083 2.071-1.759 4.5-2.369 6.786-.135.5-.271 1-.338 1.5 0 .357-.068.643-.135.929l-.271 2zm.188-3.096v-.064.064zm1.821 19.107c-.482 1.221-.826 2.513-1.17 3.805-.619 2.656-1.17 5.313-1.651 7.969h.206c.619-1.149 1.307-2.154 1.927-3.231.619-1.005 1.17-2.01 1.72-3.015.55-1.005.963-1.795 1.307-2.728.55-1.364 1.239-3.303.55-4.451-.138-.215-.344-.431-.619-.574.138.144-.344 0-.206 0h-.069c-.138 0-.206 0-.344.072.206-.072-.206.144-.344.215-.482.287-.963 1.221-1.307 1.938zm15.293 24.053c.094.045.318.195.193.195h.276l.069-.07h.069l.138-.139c.345-.209-.207.209.069 0l.207-.209c.207-.209.345-.348.482-.557.138-.07.069 0 .207-.209l.276-.348.413-.765c.276-.557.551-1.113.758-1.67.62-1.531 1.102-2.991 1.585-4.592.965-3.27 1.792-6.539 2.756-9.879.345-1.252.758-2.574 1.171-3.826l.207-1.67c-.138-.487-.276-.696-.138-1.391.069-.348.482-.765.896-.765.069-.07.138-.07.276-.07.62-.07 1.24.278 1.447.904.965 4.522-.413 9.392-.896 13.844-.413 4.452-.482 8.905-.413 13.357 2.756-4.8 5.375-9.67 7.58-14.818.551-1.322 2.618-.835 2.205.696-1.723 6.192-5.719 12.522-9.785 19.131.069 3.2.069 6.261-.138 9.461-.069 1.6-.207 3.2-.413 4.8-.138.974-.345 1.948-.551 2.852-.069.417-.207.765-.345 1.044l-.207.557c-.207.487-.276.626-.138.417-1.171 2.713-3.514 5.496-6.822 4.035-2.412-1.044-3.239-3.339-2.756-5.844.482-2.783 1.723-5.218 2.963-7.722 1.171-2.365 2.481-4.661 3.859-6.957v-8.348c0-1.6 0-3.2.069-4.8-.413 1.113-.896 2.296-1.447 3.339-.482.904-1.034 1.809-1.86 2.435-.138.139-.207.209-.413.278-.069.07-.207.209-.276.209-.276.139-.482.278-.758.348-.62.139-1.171.07-1.723-.07-2.549-.487-3.583-3.339-3.928-5.635-.413-3.131-.345-6.539.069-9.74.758-5.635 2.136-11.061 3.445-16.627.551-2.365 4.41-1.67 4.134.696-.551 4.592-1.929 9.044-2.687 13.566l-.138.487v.417l-.207 1.044c-.069.765-.207 1.531-.345 2.296-.207 1.322-.345 2.713-.413 4.105-.069.696-.069 1.322-.069 1.948v.835c0 .139.069.974 0 .487.069.487.138 1.044.276 1.531l.138.417.138.348.069.139.207.278.22.222zm-1.114-1.279l.064.128-.064-.128zm6.556 21.012c.222-1.624.37-3.318.444-5.012-.741 1.2-1.407 2.4-2 3.6-.667 1.341-1.185 2.682-1.63 4.024l-.296 1.059-.074.424v1.412-.071c.074.212.074.424.222.706l.074.141.148.212.222.212c0-.071-.074-.071-.148-.141 0 .071.074.071.074.071.074.071.148.141.222.141.148.071.222.141.37.141h.222l-.074.071h.148v-.071h.148l.074-.071s-.074.071-.148.071c.074 0 .148-.071.148-.071l.148-.141.444-.776.222-.494.296-.988c0-.212 0-.353.074-.494 0-.141.074-.635.148-.776.074-.424.222-.776.222-1.129.074-.353.074-.212.074-.141v-.071l.074-.635c.074-.353.148-.776.148-1.2zm2.444 6.116l.064-.128-.064.128zm-5.939.933l-.061-.061.061.061zm-.061-.061l.003.003h.064l-.067-.003zm0 0l.064.062h.064l-.128-.062zm.064.002v-.002h-.064l.064.002zm.936-.002h.064-.064zm0 0h.128-.128zm0 0h.064-.064z" fill-rule="nonzero" fill="#20DCDC"/></svg>
