<svg width="296" height="28" viewBox="0 0 296 28" xmlns="http://www.w3.org/2000/svg"><defs><linearGradient x1="1.444%" y1="0%" y2="0%" id="a"><stop stop-color="#6078EA" offset="0%"/><stop stop-color="#20DCDC" offset="100%"/></linearGradient></defs><path d="M294 4.318c-5.704-2.497-7.32 22.668-12.181 20.54-4.528-1.982-3.71-20.766-8.169-22.718-5.228-2.289-7.771 24.268-13.027 21.967-3.939-1.725-4.628-18.783-9.293-20.825-5.795-2.537-8.099 24.895-13.39 22.579-4.426-1.937-3.2-20.588-8.148-22.754-5.325-2.331-7.114 23.602-12.578 21.21-4.441-1.944-4.601-19.62-8.892-21.498-5.563-2.435-8.386 24.87-13.439 22.659-4.634-2.029-4.059-20.149-8.532-22.107-5.86-2.565-6.747 24.009-12.694 21.406-4.749-2.08-4.345-20.133-8.598-21.995-4.87-2.132-8.295 24.976-13.469 22.711-4.592-2.01-4.211-20.5-8.397-22.332-5.799-2.539-7.069 23.113-12.341 20.806-4.306-1.886-4.527-19.012-9.162-21.041-5.996-2.625-7.235 23.441-12.529 21.124-4.356-1.907-5.002-18.293-9.599-20.306-5.827-2.55-7.242 23.28-12.453 21-4.838-2.119-3.661-19.932-8.551-22.073-5.562-2.433-8.019 23.936-12.922 21.789-4.579-2.003-4.912-18.765-9.36-20.712-4.997-2.188-6.942 22.995-12.256 20.668-4.142-1.813-4.164-19.557-8.833-21.601-5.925-2.594-7.365 24.738-13.164 22.199-4.454-1.95-4.189-19.54-8.845-21.578-5.241-2.295-6.805 20.756-11.176 18.843" stroke="url(#a)" stroke-width="3" fill="none"/></svg>
